<?xml version="1.0" encoding="UTF-8" standalone="no"?>
<svg
   viewBox="0 0 24 24"
   version="1.1"
   id="svg12"
   sodipodi:docname="logo.svg"
   inkscape:version="1.1 (1:1.1+202105261517+ce6663b3b7)"
   xmlns:inkscape="http://www.inkscape.org/namespaces/inkscape"
   xmlns:sodipodi="http://sodipodi.sourceforge.net/DTD/sodipodi-0.dtd"
   xmlns="http://www.w3.org/2000/svg"
   xmlns:svg="http://www.w3.org/2000/svg">
  <defs
     id="defs16" />
  <sodipodi:namedview
     id="namedview14"
     pagecolor="#505050"
     bordercolor="#ffffff"
     borderopacity="1"
     inkscape:pageshadow="0"
     inkscape:pageopacity="0"
     inkscape:pagecheckerboard="1"
     showgrid="false"
     inkscape:zoom="45.254834"
     inkscape:cx="6.4523494"
     inkscape:cy="13.556563"
     inkscape:window-width="1652"
     inkscape:window-height="976"
     inkscape:window-x="8"
     inkscape:window-y="59"
     inkscape:window-maximized="0"
     inkscape:current-layer="svg12" />
  <g
     aria-label="ARTHUR"
     id="text23287"
     style="font-size:5.33333px;line-height:1.25;font-family:'Fira Sans Compressed';-inkscape-font-specification:'Fira Sans Compressed';fill:#ffffff">
    <path
       d="M 2.4382801,14.046015 H 2.9342798 L 1.9796137,10.37135 H 1.3769474 L 0.42228129,14.046015 H 0.90228101 L 1.1209475,13.112682 h 1.0986661 z m -1.2266659,-1.322666 0.4586663,-1.946666 0.4586664,1.946666 z"
       id="path7797" />
    <path
       d="M 5.5582756,14.046015 4.7529427,12.382016 c 0.4106665,-0.154667 0.6399997,-0.506667 0.6399997,-0.976 0,-0.650666 -0.3946665,-1.034666 -1.274666,-1.034666 H 3.3822769 v 3.674665 h 0.485333 v -1.567999 h 0.3306665 c 0.037333,0 0.074667,0 0.1119999,-0.0053 l 0.7146663,1.573333 z M 4.1556098,12.104683 H 3.8676099 V 10.75535 h 0.2453332 c 0.565333,0 0.7679996,0.213333 0.7679996,0.650666 0,0.48 -0.2133333,0.698667 -0.7253329,0.698667 z"
       id="path7799" />
    <path
       id="path7801"
        class="level-2"
       d="M 7.7982659,10.37135 H 5.6062672 v 0.405333 H 6.4436 l -0.1991647,3.579286 c 0.2947677,0.01017 -0.3111981,0.308176 0.8160444,0.006 L 6.9289331,10.776683 h 0.8159995 z"
       sodipodi:nodetypes="ccccccccc" />
    <path
       d="M 9.9049284,14.046015 H 10.390261 V 10.37135 H 9.9049284 v 1.546666 H 8.7209291 V 10.37135 h -0.485333 v 3.674665 h 0.485333 v -1.727999 h 1.1839993 z"
       id="path7803" />
    <path
       d="m 13.312926,10.37135 h -0.485333 v 2.650665 c 0,0.437333 -0.186667,0.677333 -0.597333,0.677333 -0.410667,0 -0.597333,-0.234666 -0.597333,-0.677333 V 10.37135 h -0.485333 v 2.687999 c 0,0.581333 0.362666,1.050666 1.082666,1.050666 0.709333,0 1.082666,-0.469333 1.082666,-1.050666 z"
       id="path7805" />
    <path
       d="m 16.246248,14.046015 -0.805333,-1.663999 c 0.410666,-0.154667 0.639999,-0.506667 0.639999,-0.976 0,-0.650666 -0.394666,-1.034666 -1.274665,-1.034666 h -0.736 v 3.674665 h 0.485333 v -1.567999 h 0.330666 c 0.03733,0 0.07467,0 0.112,-0.0053 l 0.714667,1.573333 z m -1.402666,-1.941332 h -0.288 V 10.75535 h 0.245333 c 0.565333,0 0.768,0.213333 0.768,0.650666 0,0.48 -0.213333,0.698667 -0.725333,0.698667 z"
       id="path7807" />
  </g>
  <g
     aria-label="S"
     id="text82374"
     style="font-size:10.6667px;line-height:1.25;fill:#ffffff"
     class="level-2"
     transform="translate(1.9393351,0.135262)">
    <path

       id="path218"
        class="level-2"
       d="M 20.614225,8.0788133 19.919143,9.5851629 C 19.519836,9.3941901 19.007106,8.8560368 18.668435,8.7163003 18.547299,8.666319 18.190826,8.3152294 17.64239,8.184624 17.288927,8.1004499 16.779426,8.0665889 16.314261,8.3167515 c -0.309029,0.2222229 -0.463543,0.5381962 -0.463543,0.9479197 0,0.3437511 0.102431,0.6041687 0.307293,0.7812528 0.208334,0.173611 0.600696,0.314237 1.177087,0.421876 l 0.635418,0.130209 c 0.784725,0.149306 1.362852,0.413196 1.734381,0.791669 0.375001,0.375001 0.562502,0.878475 0.562502,1.510421 0,0.753475 -0.253473,1.324657 -0.760419,1.713547 -0.503474,0.388891 -1.24306,0.583336 -2.218757,0.583336 -0.368057,0 -19.1152848,-0.05995 -19.1152848,-0.05995 l 0.2771507,-1.079205 c 0,0 17.8815401,0.314567 19.1512581,0.03864 0.702254,-0.15261 1.530626,-0.05255 1.56709,-1.118247 0.01306,-0.381723 -0.118056,-0.680558 -0.354168,-0.895837 -0.232639,-0.215271 -0.616321,-0.37673 -1.151045,-0.484369 L 17.022597,11.473011 C 16.237872,11.316761 15.670162,11.071969 15.319466,10.738634 14.968771,10.4053 14.793423,9.9417569 14.793423,9.3480048 c 0,-0.6875022 0.24132,-1.2291706 0.723961,-1.6250052 0.486113,-0.3958345 1.154517,-0.5937518 2.005214,-0.5937518 0.364585,0 0.736114,0.032986 1.114587,0.098959 0.378473,0.065973 1.581205,0.7186621 1.97704,0.8506065 z" />
  </g>
</svg>
